<svg data-noselect="" viewBox="200 150 400 300" width="1600" height="1200" preserveAspectRatio="none" version="1.1" xmlns="http://www.w3.org/2000/svg" style="background: rgb(247, 244, 255);"><defs></defs> <g id="shape_hP9mPE5vpQ" transform="translate(318.13695526123,158.2273550702156) rotate(0,83.10906438908,83.10906438908) scale(1,1)" filter="" style="cursor: move; opacity: 1;"><g><rect fill="rgba(0,0,0,0)" width="186.21812877816" height="181.87588397596883" x="-10" y="-10"></rect><svg version="1.1" id="图层_1" xmlns="http://www.w3.org/2000/svg" xmlns:xlink="http://www.w3.org/1999/xlink" x="0px" y="0px" width="166.21812877816" height="161.87588397596883" viewBox="63.399986267089844 53.29999923706055 164.5999755859375 160.3000030517578" style="enable-background:new 0 0 283.5 283.5;" xml:space="preserve" preserveAspectRatio="none" data-parent="shape_hP9mPE5vpQ">
<style type="text/css">
	.st0{fill:#FFFFFF;}
	.st1{fill:#007A3E;}
	.st2{fill:#71B92E;}
	.st3{fill:#008A55;}
	.st4{fill:#AEC801;}
	.st5{fill:url(#SVGID_1_);}
	.st6{fill:url(#SVGID_3_);}
	.st7{fill:#9C7659;}
	.st8{fill:#735C4B;}
	.st9{fill:#C49A79;}
	.st10{fill:#5BD0F0;}
	.st11{fill:#FAAE00;}
	.st12{fill:#E0A00B;}
	.st13{fill:#D6F6FF;}
	.st14{fill:#2698B5;}
	.st15{fill:#FEFEFE;}
	.st16{fill:#AED581;}
	.st17{fill:#E2FFCF;}
	.st18{fill:#6E9157;}
	.st19{fill:#B3DE96;}
	.st20{fill:#CFA07C;}
	.st21{fill:#82E4FF;}
	.st22{fill:#42B7D4;}
	.st23{fill:#326936;}
	.st24{fill:#89B944;}
	.st25{fill:#E8B50E;}
	.st26{fill:#19A5BA;}
	.st27{fill:#3F8BC0;}
	.st28{fill:#91C939;}
	.st29{fill:#3E8730;}
	.st30{opacity:0.44;}
	.st31{fill-rule:evenodd;clip-rule:evenodd;fill:#2E3192;}
	.st32{fill-rule:evenodd;clip-rule:evenodd;fill:#213D73;}
	.st33{opacity:0.29;fill-rule:evenodd;clip-rule:evenodd;fill:#FFFFFF;}
	.st34{fill:#213D73;}
	.st35{fill-rule:evenodd;clip-rule:evenodd;fill:#FAAE00;}
	.st36{fill:#26AEF9;}
	.st37{fill:#FFFFFF;stroke:#000000;stroke-miterlimit:10;}
	.st38{fill:url(#SVGID_4_);}
	.st39{fill:url(#SVGID_5_);}
	.st40{fill:url(#SVGID_6_);}
	.st41{fill:url(#SVGID_7_);}
	.st42{fill:url(#SVGID_8_);}
	.st43{fill:url(#SVGID_9_);}
	.st44{fill:url(#SVGID_10_);}
	.st45{fill:#68519B;}
	.st46{fill:url(#SVGID_11_);}
	.st47{opacity:0.6;fill:url(#SVGID_12_);enable-background:new    ;}
	.st48{fill:url(#SVGID_13_);}
	.st49{fill:url(#SVGID_14_);}
	.st50{opacity:0.7;fill:url(#SVGID_15_);enable-background:new    ;}
	.st51{opacity:0.7;fill:url(#SVGID_17_);enable-background:new    ;}
	.st52{opacity:0.5;fill:url(#SVGID_20_);enable-background:new    ;}
	.st53{opacity:0.6;fill:url(#SVGID_23_);enable-background:new    ;}
	.st54{opacity:0.6;fill:url(#SVGID_35_);enable-background:new    ;}
	.st55{fill:url(#SVGID_36_);}
	.st56{opacity:0.5;fill:url(#SVGID_37_);enable-background:new    ;}
	.st57{opacity:0.6;fill:url(#SVGID_38_);enable-background:new    ;}
	.st58{fill:url(#SVGID_39_);}
	.st59{opacity:0.6;fill:url(#SVGID_40_);enable-background:new    ;}
	.st60{opacity:0.6;fill:url(#SVGID_41_);enable-background:new    ;}
	.st61{fill:#FCCC26;}
	.st62{fill:url(#SVGID_42_);}
	.st63{fill:#7FC94A;}
	.st64{fill:url(#SVGID_43_);}
	.st65{fill:url(#SVGID_44_);}
	.st66{fill:url(#SVGID_45_);}
	.st67{clip-path:url(#SVGID_48_);}
	.st68{filter:url(#Adobe_OpacityMaskFilter);}
	.st69{clip-path:url(#SVGID_49_);}
	.st70{clip-path:url(#SVGID_53_);}
	.st71{clip-path:url(#SVGID_54_);fill:url(#SVGID_55_);}
	.st72{clip-path:url(#SVGID_49_);mask:url(#SVGID_50_);fill:url(#SVGID_56_);}
	.st73{fill:url(#SVGID_57_);}
	.st74{clip-path:url(#SVGID_60_);}
	.st75{filter:url(#Adobe_OpacityMaskFilter_1_);}
	.st76{clip-path:url(#SVGID_61_);}
	.st77{clip-path:url(#SVGID_65_);}
	.st78{clip-path:url(#SVGID_66_);fill:url(#SVGID_67_);}
	.st79{clip-path:url(#SVGID_61_);mask:url(#SVGID_62_);fill:url(#SVGID_68_);}
	.st80{fill:url(#SVGID_69_);}
	.st81{clip-path:url(#SVGID_72_);}
	.st82{filter:url(#Adobe_OpacityMaskFilter_2_);}
	.st83{clip-path:url(#SVGID_73_);}
	.st84{clip-path:url(#SVGID_77_);}
	.st85{clip-path:url(#SVGID_78_);fill:url(#SVGID_79_);}
	.st86{clip-path:url(#SVGID_73_);mask:url(#SVGID_74_);fill:url(#SVGID_80_);}
	.st87{opacity:0.6;fill:url(#SVGID_81_);enable-background:new    ;}
	.st88{clip-path:url(#SVGID_84_);}
	.st89{filter:url(#Adobe_OpacityMaskFilter_3_);}
	.st90{clip-path:url(#SVGID_85_);}
	.st91{clip-path:url(#SVGID_89_);}
	.st92{clip-path:url(#SVGID_90_);fill:url(#SVGID_91_);}
	.st93{clip-path:url(#SVGID_85_);mask:url(#SVGID_86_);fill:url(#SVGID_92_);}
	.st94{fill:url(#SVGID_93_);}
	.st95{clip-path:url(#SVGID_96_);}
	.st96{filter:url(#Adobe_OpacityMaskFilter_4_);}
	.st97{clip-path:url(#SVGID_97_);}
	.st98{clip-path:url(#SVGID_101_);}
	.st99{clip-path:url(#SVGID_102_);fill:url(#SVGID_103_);}
	.st100{clip-path:url(#SVGID_97_);mask:url(#SVGID_98_);fill:url(#SVGID_104_);}
	.st101{fill:url(#SVGID_105_);}
	.st102{clip-path:url(#SVGID_108_);}
	.st103{filter:url(#Adobe_OpacityMaskFilter_5_);}
	.st104{clip-path:url(#SVGID_109_);}
	.st105{clip-path:url(#SVGID_113_);}
	.st106{clip-path:url(#SVGID_114_);fill:url(#SVGID_115_);}
	.st107{clip-path:url(#SVGID_109_);mask:url(#SVGID_110_);fill:url(#SVGID_116_);}
	.st108{fill:url(#SVGID_117_);}
	.st109{clip-path:url(#SVGID_120_);}
	.st110{filter:url(#Adobe_OpacityMaskFilter_6_);}
	.st111{clip-path:url(#SVGID_121_);}
	.st112{clip-path:url(#SVGID_125_);}
	.st113{clip-path:url(#SVGID_126_);fill:url(#SVGID_127_);}
	.st114{clip-path:url(#SVGID_121_);mask:url(#SVGID_122_);fill:url(#SVGID_128_);}
	.st115{fill:url(#SVGID_129_);}
	.st116{clip-path:url(#SVGID_132_);}
	.st117{filter:url(#Adobe_OpacityMaskFilter_7_);}
	.st118{clip-path:url(#SVGID_133_);}
	.st119{clip-path:url(#SVGID_137_);}
	.st120{clip-path:url(#SVGID_138_);fill:url(#SVGID_139_);}
	.st121{clip-path:url(#SVGID_133_);mask:url(#SVGID_134_);fill:url(#SVGID_140_);}
	.st122{fill:url(#SVGID_141_);}
	.st123{fill:#FE2C48;}
	.st124{fill:#202227;}
	.st125{fill:#9D5414;}
	.st126{fill:#DD7B31;}
	.st127{fill:#FF4F1A;}
	.st128{fill:#FF9100;}
	.st129{fill:#FFCF00;}
	.st130{fill:#4EBD20;}
	.st131{fill:#08A5FF;}
	.st132{fill:#FEFACA;}
	.st133{fill:#FFEEA0;}
	.st134{fill:#FFE382;}
	.st135{fill:#FEDC70;}
	.st136{fill:#F7941D;}
	.st137{fill:#00B0D2;}
	.st138{fill:#2F3C20;}
	.st139{fill:#5C7F49;}
	.st140{fill:#A5DBF5;}
	.st141{fill:url(#SVGID_142_);}
	.st142{filter:url(#Adobe_OpacityMaskFilter_8_);}
	.st143{fill:url(#SVGID_143_);}
	.st144{mask:url(#SVGID_2_);fill:#FFFFFF;}
	.st145{fill:url(#SVGID_144_);}
	.st146{fill:url(#SVGID_145_);}
	.st147{fill:#91E7D0;}
	.st148{fill:#CE8F03;}
	.st149{fill:#F86957;}
	.st150{opacity:0.34;fill:url(#SVGID_146_);}
	.st151{opacity:0.27;fill:url(#SVGID_147_);}
	.st152{fill:#4871A4;}
	.st153{fill:#FE8D6F;}
	.st154{fill:#424C6F;}
	.st155{fill:#AD9055;}
	.st156{fill:#FFE7CF;}
	.st157{fill:#E47D6D;}
	.st158{fill:#62B6AA;}
	.st159{fill:#D6F1BF;}
	.st160{fill:#D8F1BF;}
	.st161{fill:#30A22B;}
	.st162{fill:url(#SVGID_148_);}
	.st163{fill:#E0B345;}
</style>
<g>
	<path class="st27" d="M189.9,80.6c-6.9-16.5-23-27.3-40.8-27.3c-21.3,0-39.3,15.1-43.5,35.8h-0.3c-23.1,0-41.9,19-41.9,42.4
		c0,17.9,11.1,33.9,27.8,39.9v-10c-11.2-5.5-18.5-17-18.5-29.9c0-18.3,14.6-33.1,32.6-33.1c1.2,0,2.4,0.1,3.7,0.2l4.6,0.5l0.5-4.6
		c1.9-18.2,16.9-31.9,34.9-31.9c14.9,0,28.2,9.6,33.1,23.8l1,2.7l2.9,0.3c18.6,2.3,32.7,18.4,32.7,37.4c0,15.6-9.4,29.5-23.5,35.1
		v9.8h0.1l0.7-0.2c19.1-6.3,32-24.3,32-44.7C228,104,211.8,84.7,189.9,80.6z"></path>
</g>
<path class="st27" d="M163.7,137.4c-11,0-19.9,8.9-19.9,19.9c0,11,8.9,19.9,19.9,19.9c11,0,19.9-8.9,19.9-19.9
	C183.6,146.3,174.7,137.4,163.7,137.4z M163.7,169.7c-6.9,0-12.5-5.6-12.5-12.5c0-6.9,5.6-12.5,12.5-12.5c6.9,0,12.5,5.6,12.5,12.5
	C176.2,164,170.6,169.7,163.7,169.7z"></path>
<path class="st27" d="M113.7,115.2c-11,0-19.8,8.9-19.8,19.8c0,11,8.9,19.8,19.8,19.8c11,0,19.8-8.9,19.8-19.8
	C133.6,124.1,124.7,115.2,113.7,115.2z M113.7,147.4c-6.9,0-12.5-5.6-12.5-12.5s5.6-12.5,12.5-12.5c6.9,0,12.5,5.6,12.5,12.5
	S120.6,147.4,113.7,147.4z"></path>
<path class="st27" d="M151.2,81.6c-9.1,0-16.5,7.4-16.5,16.5s7.4,16.5,16.5,16.5c9.1,0,16.5-7.4,16.5-16.5S160.3,81.6,151.2,81.6z
	 M151.2,108.4c-5.7,0-10.4-4.7-10.4-10.4c0-5.7,4.7-10.4,10.4-10.4s10.4,4.7,10.4,10.4C161.6,103.7,156.9,108.4,151.2,108.4z"></path>
<path class="st27" d="M139,180.6c-9.1,0-16.5,7.4-16.5,16.5c0,9.1,7.4,16.5,16.5,16.5c9.1,0,16.5-7.4,16.5-16.5
	C155.5,187.9,148.1,180.6,139,180.6z M139,207.3c-5.7,0-10.4-4.7-10.4-10.4s4.7-10.4,10.4-10.4s10.4,4.7,10.4,10.4
	S144.7,207.3,139,207.3z"></path>
<rect x="122.8" y="146.1" transform="matrix(0.9856 0.1693 -0.1693 0.9856 27.2203 -21.1024)" class="st27" width="29.2" height="6"></rect>
<rect x="117.7" y="110.3" transform="matrix(0.8135 -0.5815 0.5815 0.8135 -41.7875 96.3337)" class="st27" width="23.2" height="6"></rect>
<rect x="144.7" y="178.3" transform="matrix(-0.5948 0.8038 -0.8038 -0.5948 390.9048 165.6619)" class="st27" width="18" height="6"></rect>
</svg></g> <!----></g><g id="shape_tXsMepMPDG" transform="translate(272.5560302734375,326.075475692749) rotate(0,136.6900634765625,50.5462646484375) scale(1,1)" filter="" style="cursor: move; opacity: 1;"><g><svg xmlns="http://www.w3.org/2000/svg" version="1.1" xmlns:xlink="http://www.w3.org/1999/xlink" overflow="hidden" style="top:0; left: 0" width="273.380126953125" height="101.092529296875" viewBox="0 0 273.380126953125 101.092529296875" preserveAspectRatio="none" data-parent="shape_tXsMepMPDG"><rect fill="rgba(0,0,0,0)" width="273.380126953125" height="101.092529296875"></rect> <rect opacity="0"></rect><g transform="translate(2.9156494140625,0)" data-width="267.548828125"><path fill="rgb(25, 25, 25)" d="M14.63-16.28L14.63-52.57L21.68-52.57L21.68-17.25Q21.68-10.22 17.93-5.11Q14.17 0 3.97 0L3.97 0L0 0L0-6.59L4.94-6.59Q14.63-7.36 14.63-16.28L14.63-16.28Z" transform="translate(5 53.631591796875)" data-glyph-w="24.90234375"></path><path fill="rgb(25, 25, 25)" d="M10.13 0L2.93 0L3.08-34.88Q3.30-40.23 5.63-44.49Q7.97-48.76 11.89-51.11Q15.82-53.47 20.62-53.47L20.62-53.47Q25.87-53.47 29.99-51.10Q34.11-48.74 36.45-44.16Q38.78-39.57 38.85-33.23L38.85-33.23L38.85 0L31.81 0L31.81-23.86L12.91-23.86L12.91-30.60L31.81-30.60Q31.81-30.94 31.84-31.60Q31.88-32.26 31.88-32.56L31.88-32.56Q31.88-37.28 30.57-40.48Q29.26-43.67 26.84-45.27Q24.43-46.88 21.08-46.88L21.08-46.88L20.93-46.88Q16.88-46.88 14.47-44.88Q12.05-42.88 11.09-40.15Q10.13-37.41 10.13-34.88L10.13-34.88L10.13 0Z" transform="translate(39.90234375 53.631591796875)" data-glyph-w="41.766357421875"></path><path fill="rgb(25, 25, 25)" d="M4.80 0L4.80-52.57L11.85-52.57L11.85-30.45L18.15-30.45Q20.34-30.45 21.94-31.59Q23.53-32.74 24.56-34.45Q25.60-36.16 26.92-39.07L26.92-39.07L33.07-52.57L41.03-52.57L33.53-36.29Q32.78-34.28 31.23-32.24Q29.68-30.21 27.67-29.33L27.67-29.33Q32.94-27.91 35.74-24.46Q38.54-21.02 38.54-14.78L38.54-14.78L38.54 0L31.35 0L31.49-15.07Q31.49-19.13 28.96-21.50Q26.42-23.86 20.93-23.86L20.93-23.86L11.85-23.86L11.85 0L4.80 0Z" transform="translate(91.668701171875 53.631591796875)" data-glyph-w="41.766357421875"></path><path fill="rgb(25, 25, 25)" d="M1.72-26.62L1.72-26.62Q2.01-33.36 4.66-38.50Q7.31-43.63 11.45-46.95Q15.60-50.26 20.38-51.86Q25.16-53.47 29.70-53.47L29.70-53.47Q36.16-53.47 41.11-51.18Q46.05-48.89 50.85-44.09L50.85-44.09L46.27-38.85Q41.91-42.61 38.14-44.74Q34.37-46.88 29.63-46.88L29.63-46.88Q23.22-46.80 18.55-43.81Q13.88-40.81 11.48-36.15Q9.08-31.48 9.08-26.55L9.08-26.55Q9.08-22.78 10.43-19.10Q11.77-15.42 14.41-12.42Q17.05-9.43 20.86-7.63Q24.68-5.82 29.48-5.69L29.48-5.69Q35.27-5.77 39.58-8.40Q43.89-11.02 46.19-15.01Q48.49-19.01 48.60-23.02L48.60-23.02L30.16-23.02L30.16-29.63L55.96-29.63L55.96-24.30Q55.85-18.71 53.60-14.04Q51.36-9.38 47.54-6.01Q43.73-2.64 39.03-0.87Q34.33 0.90 29.48 0.90L29.48 0.90Q23.79 0.84 18.81-1.18Q13.84-3.20 10.03-6.94Q6.21-10.68 4.06-15.67Q1.90-20.67 1.72-26.62Z" transform="translate(143.43505859375 53.631591796875)" data-glyph-w="58.282470703125"></path><path fill="rgb(25, 25, 25)" d="M11.55 0L4.58 0L4.58-52.57L18.46-52.57Q24.21-52.57 29.86-49.60Q35.50-46.64 39.29-40.74Q43.08-34.84 43.51-26.62L43.51-26.62Q43.45-21.95 41.98-17.40Q40.50-12.85 37.45-8.97Q34.41-5.09 29.72-2.69Q25.03-0.29 18.75 0L18.75 0L14.48 0L14.48-6.76L19.35-6.76Q24.33-6.76 28.17-9.80Q32.01-12.84 34.08-17.47Q36.15-22.10 36.15-26.62L36.15-26.62Q35.94-32.03 33.54-36.42Q31.13-40.81 26.72-43.40Q22.30-45.98 16.42-45.98L16.42-45.98L11.55-45.98L11.55 0Z" transform="translate(211.717529296875 53.631591796875)" data-glyph-w="45.831298828125"></path></g></svg></g> <!----></g>  <!----></svg>